<svg width="24" height="24" viewBox="0 0 24 24" fill="none" xmlns="http://www.w3.org/2000/svg">
<path d="M17.5324 14.9785C17.3341 14.9785 17.1401 14.9235 16.9752 14.8206C16.8102 14.7176 16.6817 14.5712 16.6057 14.4C16.5298 14.2287 16.51 14.0403 16.5487 13.8585C16.5874 13.6767 16.6829 13.5097 16.8232 13.3787C16.9635 13.2476 17.1422 13.1584 17.3368 13.1222C17.5313 13.086 17.733 13.1046 17.9163 13.1755C18.0996 13.2465 18.2562 13.3666 18.3664 13.5207C18.4767 13.6748 18.5355 13.856 18.5355 14.0413C18.5355 14.2899 18.4298 14.5283 18.2417 14.704C18.0536 14.8798 17.7985 14.9785 17.5324 14.9785ZM6.48846 14.9785C6.29008 14.9785 6.09615 14.9235 5.9312 14.8206C5.76625 14.7176 5.63768 14.5712 5.56176 14.4C5.48585 14.2287 5.46599 14.0403 5.50469 13.8585C5.54339 13.6767 5.63892 13.5097 5.7792 13.3787C5.91948 13.2476 6.09821 13.1584 6.29278 13.1222C6.48735 13.086 6.68903 13.1046 6.87231 13.1755C7.0556 13.2465 7.21225 13.3666 7.32247 13.5207C7.43268 13.6748 7.49151 13.856 7.49151 14.0413C7.49151 14.2899 7.38583 14.5283 7.19772 14.704C7.00961 14.8798 6.75449 14.9785 6.48846 14.9785ZM17.8877 9.35562L19.8938 6.12442C19.9208 6.08017 19.9383 6.03137 19.9451 5.98081C19.9519 5.93025 19.948 5.87892 19.9335 5.82979C19.9191 5.78065 19.8943 5.73467 19.8608 5.69449C19.8272 5.65431 19.7855 5.62071 19.738 5.59564C19.6906 5.57056 19.6382 5.5545 19.5841 5.54837C19.5299 5.54224 19.475 5.54617 19.4225 5.55993C19.37 5.57368 19.3209 5.597 19.278 5.62854C19.2352 5.66008 19.1994 5.69921 19.1728 5.7437L17.1458 9.01395C15.536 8.32661 13.7857 7.97358 12.0157 7.97918C10.2436 7.97513 8.49098 8.32459 6.87505 9.00419L4.84806 5.73394C4.79373 5.64514 4.70398 5.58006 4.59844 5.55293C4.49289 5.52579 4.38013 5.53881 4.28483 5.58914C4.18953 5.63946 4.11944 5.723 4.08989 5.82148C4.06033 5.91996 4.07372 6.02537 4.12712 6.11465L6.12277 9.34585C4.39726 10.2251 2.9337 11.4925 1.86461 13.0334C0.79551 14.5743 0.154636 16.34 0 18.1706H24C23.8501 16.3413 23.2122 14.5762 22.1445 13.0364C21.0768 11.4966 19.6133 10.2312 17.8877 9.35562Z" fill="currentColor"/>
</svg>
