<svg width="144" height="48" viewBox="0 0 144 48" fill="currentColor" xmlns="http://www.w3.org/2000/svg">
<path d="M0 16C0 7.16344 7.16344 0 16 0H144V32C144 40.8366 136.837 48 128 48H16C7.16344 48 0 40.8366 0 32V16Z" fill="currentColor"/>
<path d="M28.2448 17.784H29.5088V25.736H28.2448V17.784ZM22.2768 20.456H25.8128V21.544H22.2768V20.456ZM25.3648 18.072H26.6128V25.624H25.3648V18.072ZM18.0368 18.712H19.3488V24.36H18.0368V18.712ZM18.0368 23.976H18.9488C19.7808 23.976 20.6021 23.9493 21.4128 23.896C22.2341 23.832 23.1034 23.7093 24.0208 23.528L24.1968 24.616C23.2368 24.8187 22.3408 24.9467 21.5088 25C20.6768 25.0533 19.8234 25.08 18.9488 25.08H18.0368V23.976ZM20.1008 26.328H21.4128V28.088H28.2128V26.328H29.5088V32.056H20.1008V26.328ZM21.4128 29.128V30.968H28.2128V29.128H21.4128ZM41.4216 18.008H42.5736V18.664C42.5736 19.176 42.467 19.656 42.2536 20.104C42.051 20.552 41.763 20.968 41.3896 21.352C41.027 21.7253 40.6003 22.0613 40.1096 22.36C39.6296 22.648 39.107 22.8933 38.5416 23.096C37.987 23.288 37.4163 23.432 36.8296 23.528L36.3176 22.472C36.8403 22.408 37.347 22.296 37.8376 22.136C38.339 21.9653 38.803 21.7627 39.2296 21.528C39.667 21.2827 40.0456 21.0107 40.3656 20.712C40.6963 20.4133 40.9523 20.0933 41.1336 19.752C41.3256 19.4 41.4216 19.0373 41.4216 18.664V18.008ZM41.6456 18.008H42.7816V18.664C42.7816 19.0373 42.8723 19.3947 43.0536 19.736C43.2456 20.0773 43.507 20.3973 43.8376 20.696C44.1683 20.9947 44.547 21.2667 44.9736 21.512C45.4003 21.7573 45.859 21.9653 46.3496 22.136C46.851 22.296 47.3576 22.408 47.8696 22.472L47.3736 23.528C46.787 23.432 46.211 23.2827 45.6456 23.08C45.091 22.8773 44.5683 22.632 44.0776 22.344C43.5976 22.0453 43.171 21.7093 42.7976 21.336C42.435 20.952 42.1523 20.536 41.9496 20.088C41.747 19.64 41.6456 19.1653 41.6456 18.664V18.008ZM35.5656 24.68H48.6376V25.752H35.5656V24.68ZM42.0936 27.096C43.6403 27.096 44.851 27.3147 45.7256 27.752C46.6003 28.1893 47.0376 28.824 47.0376 29.656C47.0376 30.4773 46.6003 31.112 45.7256 31.56C44.851 32.008 43.6403 32.232 42.0936 32.232C40.547 32.232 39.331 32.008 38.4456 31.56C37.571 31.112 37.1336 30.4773 37.1336 29.656C37.1336 28.824 37.571 28.1893 38.4456 27.752C39.331 27.3147 40.547 27.096 42.0936 27.096ZM42.0936 28.12C41.3363 28.12 40.6856 28.184 40.1416 28.312C39.6083 28.4293 39.1976 28.6 38.9096 28.824C38.6216 29.048 38.4776 29.3253 38.4776 29.656C38.4776 29.9867 38.6216 30.2693 38.9096 30.504C39.1976 30.728 39.6083 30.8987 40.1416 31.016C40.6856 31.1333 41.3363 31.192 42.0936 31.192C42.851 31.192 43.4963 31.1333 44.0296 31.016C44.5736 30.8987 44.9896 30.728 45.2776 30.504C45.5656 30.2693 45.7096 29.9867 45.7096 29.656C45.7096 29.3253 45.5656 29.048 45.2776 28.824C44.9896 28.6 44.5736 28.4293 44.0296 28.312C43.4963 28.184 42.851 28.12 42.0936 28.12ZM60.8124 17.784H62.1404V28.344H60.8124V17.784ZM52.8444 30.84H62.5884V31.928H52.8444V30.84ZM52.8444 27.272H54.1724V31.208H52.8444V27.272ZM54.3804 18.792C55.1057 18.792 55.751 18.9413 56.3164 19.24C56.8817 19.5387 57.3297 19.96 57.6604 20.504C57.991 21.0373 58.1564 21.6507 58.1564 22.344C58.1564 23.0373 57.991 23.656 57.6604 24.2C57.3297 24.7333 56.8817 25.1547 56.3164 25.464C55.751 25.7627 55.1057 25.912 54.3804 25.912C53.6657 25.912 53.0204 25.7627 52.4444 25.464C51.879 25.1547 51.431 24.7333 51.1004 24.2C50.7697 23.656 50.6044 23.0373 50.6044 22.344C50.6044 21.6507 50.7697 21.0373 51.1004 20.504C51.431 19.96 51.879 19.5387 52.4444 19.24C53.0204 18.9413 53.6657 18.792 54.3804 18.792ZM54.3804 19.944C53.911 19.944 53.4897 20.0453 53.1164 20.248C52.743 20.4507 52.4444 20.7333 52.2204 21.096C52.007 21.4587 51.9004 21.8747 51.9004 22.344C51.9004 22.824 52.007 23.2453 52.2204 23.608C52.4444 23.96 52.743 24.2373 53.1164 24.44C53.4897 24.6427 53.911 24.744 54.3804 24.744C54.8497 24.744 55.271 24.6427 55.6444 24.44C56.0284 24.2373 56.327 23.96 56.5404 23.608C56.7537 23.2453 56.8604 22.824 56.8604 22.344C56.8604 21.8747 56.7537 21.4587 56.5404 21.096C56.327 20.7333 56.0284 20.4507 55.6444 20.248C55.271 20.0453 54.8497 19.944 54.3804 19.944ZM75.9311 17.784H77.1951V26.744H75.9311V17.784ZM73.5631 21.752H76.2991V22.84H73.5631V21.752ZM72.8591 18.008H74.1071V26.52H72.8591V18.008ZM64.9231 19.416H72.2511V20.488H64.9231V19.416ZM68.6031 21.208C69.2111 21.208 69.7445 21.3147 70.2031 21.528C70.6725 21.7307 71.0351 22.0187 71.2911 22.392C71.5578 22.7547 71.6911 23.1867 71.6911 23.688C71.6911 24.1787 71.5578 24.6107 71.2911 24.984C71.0351 25.3573 70.6725 25.6507 70.2031 25.864C69.7445 26.0667 69.2111 26.168 68.6031 26.168C68.0058 26.168 67.4725 26.0667 67.0031 25.864C66.5338 25.6507 66.1711 25.3573 65.9151 24.984C65.6591 24.6107 65.5311 24.1787 65.5311 23.688C65.5311 23.1867 65.6591 22.7547 65.9151 22.392C66.1711 22.0187 66.5338 21.7307 67.0031 21.528C67.4725 21.3147 68.0058 21.208 68.6031 21.208ZM68.6031 22.2C68.0485 22.2 67.5951 22.3333 67.2431 22.6C66.8911 22.8667 66.7151 23.2293 66.7151 23.688C66.7151 24.136 66.8911 24.4987 67.2431 24.776C67.5951 25.0427 68.0485 25.176 68.6031 25.176C69.1685 25.176 69.6218 25.0427 69.9631 24.776C70.3151 24.4987 70.4911 24.136 70.4911 23.688C70.4911 23.2293 70.3151 22.8667 69.9631 22.6C69.6218 22.3333 69.1685 22.2 68.6031 22.2ZM67.9471 17.832H69.2591V20.056H67.9471V17.832ZM68.8111 27.176H69.8511V27.656C69.8511 28.264 69.7178 28.8613 69.4511 29.448C69.1951 30.024 68.8218 30.5413 68.3311 31C67.8405 31.4587 67.2431 31.816 66.5391 32.072L65.9151 31.064C66.5231 30.8613 67.0405 30.5787 67.4671 30.216C67.9045 29.8427 68.2351 29.432 68.4591 28.984C68.6938 28.536 68.8111 28.0933 68.8111 27.656V27.176ZM69.1151 27.176H70.1071V27.656C70.1071 28.1147 70.1978 28.5787 70.3791 29.048C70.5711 29.5067 70.8591 29.9227 71.2431 30.296C71.6271 30.6693 72.1018 30.968 72.6671 31.192L72.1231 32.2C71.4298 31.9333 70.8591 31.56 70.4111 31.08C69.9738 30.6107 69.6485 30.0773 69.4351 29.48C69.2218 28.8827 69.1151 28.2747 69.1151 27.656V27.176ZM74.1231 27.176H75.1151V27.656C75.1151 28.2 75.0085 28.7707 74.7951 29.368C74.5818 29.9653 74.2511 30.5147 73.8031 31.016C73.3658 31.528 72.8058 31.9227 72.1231 32.2L71.5631 31.192C72.1285 30.936 72.5978 30.6107 72.9711 30.216C73.3551 29.8213 73.6431 29.3947 73.8351 28.936C74.0271 28.4773 74.1231 28.0507 74.1231 27.656V27.176ZM74.4111 27.176H75.4351V27.656C75.4351 28.1253 75.5471 28.5893 75.7711 29.048C76.0058 29.496 76.3418 29.896 76.7791 30.248C77.2165 30.6 77.7338 30.872 78.3311 31.064L77.7071 32.072C77.0031 31.8267 76.4058 31.48 75.9151 31.032C75.4245 30.5947 75.0511 30.0827 74.7951 29.496C74.5391 28.9093 74.4111 28.296 74.4111 27.656V27.176ZM81.3699 26.456H82.6819V28.12H89.7699V26.456H91.0819V32.056H81.3699V26.456ZM82.6819 29.16V30.984H89.7699V29.16H82.6819ZM79.7219 24.36H92.7939V25.448H79.7219V24.36ZM85.5779 17.928H86.7299V18.584C86.7299 19.0853 86.6232 19.56 86.4099 20.008C86.1965 20.4453 85.9032 20.8507 85.5299 21.224C85.1672 21.5867 84.7405 21.912 84.2499 22.2C83.7699 22.488 83.2472 22.728 82.6819 22.92C82.1272 23.112 81.5512 23.256 80.9539 23.352L80.4579 22.296C80.9805 22.2213 81.4872 22.104 81.9779 21.944C82.4792 21.784 82.9485 21.592 83.3859 21.368C83.8232 21.1333 84.2072 20.872 84.5379 20.584C84.8685 20.2853 85.1245 19.9707 85.3059 19.64C85.4872 19.2987 85.5779 18.9467 85.5779 18.584V17.928ZM85.8019 17.928H86.9379V18.584C86.9379 18.936 87.0285 19.2827 87.2099 19.624C87.4019 19.9547 87.6632 20.2693 87.9939 20.568C88.3245 20.856 88.7032 21.1173 89.1299 21.352C89.5672 21.5867 90.0312 21.7893 90.5219 21.96C91.0232 22.12 91.5299 22.232 92.0419 22.296L91.5619 23.352C90.9645 23.256 90.3832 23.112 89.8179 22.92C89.2632 22.728 88.7405 22.488 88.2499 22.2C87.7699 21.9013 87.3432 21.5653 86.9699 21.192C86.6072 20.8187 86.3192 20.4133 86.1059 19.976C85.9032 19.5387 85.8019 19.0747 85.8019 18.584V17.928ZM104.969 17.768H106.281V32.248H104.969V17.768ZM95.3526 19.192H96.6646V28.152H95.3526V19.192ZM95.3526 27.368H96.5366C97.646 27.368 98.7713 27.32 99.9126 27.224C101.065 27.1173 102.249 26.9413 103.465 26.696L103.641 27.816C102.382 28.0827 101.171 28.2693 100.009 28.376C98.846 28.472 97.6886 28.52 96.5366 28.52H95.3526V27.368ZM118.951 17.768H120.279V32.264H118.951V17.768ZM119.975 23.48H122.647V24.584H119.975V23.48ZM109.783 27.528H110.919C111.805 27.528 112.615 27.5173 113.351 27.496C114.098 27.464 114.813 27.4107 115.495 27.336C116.189 27.2613 116.893 27.16 117.607 27.032L117.767 28.168C117.021 28.296 116.295 28.3973 115.591 28.472C114.898 28.5467 114.173 28.5947 113.415 28.616C112.658 28.6373 111.826 28.648 110.919 28.648H109.783V27.528ZM109.783 19.176H116.487V20.264H111.095V28.04H109.783V19.176ZM125.302 31.208C125.014 31.208 124.763 31.1067 124.55 30.904C124.347 30.6907 124.246 30.424 124.246 30.104C124.246 29.7627 124.347 29.4907 124.55 29.288C124.763 29.0853 125.014 28.984 125.302 28.984C125.59 28.984 125.835 29.0853 126.038 29.288C126.251 29.4907 126.358 29.7627 126.358 30.104C126.358 30.424 126.251 30.6907 126.038 30.904C125.835 31.1067 125.59 31.208 125.302 31.208Z" fill="currentColor"/>
</svg>

