<svg width="192" height="48" viewBox="0 0 192 48" fill="currentColor" xmlns="http://www.w3.org/2000/svg">
<path d="M0 0H176C184.837 0 192 7.16344 192 16V32C192 40.8366 184.837 48 176 48H16C7.16344 48 0 40.8366 0 32V0Z" fill="currentColor"/>
<path d="M21.0262 24.264H22.3382V27.768H21.0262V24.264ZM27.6022 17.784H28.9462V28.712H27.6022V17.784ZM19.0742 30.84H29.2982V31.928H19.0742V30.84ZM19.0742 27.512H20.4022V31.16H19.0742V27.512ZM17.1222 24.584L16.9462 23.496C17.8315 23.4853 18.8022 23.4747 19.8582 23.464C20.9142 23.4427 21.9969 23.4 23.1062 23.336C24.2155 23.2613 25.2822 23.1547 26.3062 23.016L26.4022 23.976C25.3569 24.1573 24.2849 24.2907 23.1862 24.376C22.0875 24.4613 21.0209 24.52 19.9862 24.552C18.9515 24.5733 17.9969 24.584 17.1222 24.584ZM24.4662 25.64H27.9382V26.712H24.4662V25.64ZM18.2422 18.648H24.4822V19.72H18.2422V18.648ZM23.6822 18.648H24.9942V19.208C24.9942 19.6347 24.9782 20.2267 24.9462 20.984C24.9142 21.7413 24.7969 22.6427 24.5942 23.688L23.2982 23.592C23.4902 22.536 23.6022 21.6453 23.6342 20.92C23.6662 20.1947 23.6822 19.624 23.6822 19.208V18.648ZM41.6649 17.784H42.9929V28.632H41.6649V17.784ZM42.5769 22.536H45.1209V23.64H42.5769V22.536ZM31.7929 19.544H40.3369V20.616H31.7929V19.544ZM36.0649 21.4C36.7476 21.4 37.3503 21.5173 37.8729 21.752C38.3956 21.976 38.8009 22.2907 39.0889 22.696C39.3769 23.0907 39.5209 23.56 39.5209 24.104C39.5209 24.648 39.3769 25.1227 39.0889 25.528C38.8009 25.9227 38.3956 26.232 37.8729 26.456C37.3503 26.68 36.7476 26.792 36.0649 26.792C35.3823 26.792 34.7796 26.68 34.2569 26.456C33.7343 26.232 33.3236 25.9227 33.0249 25.528C32.7369 25.1227 32.5929 24.648 32.5929 24.104C32.5929 23.56 32.7369 23.0907 33.0249 22.696C33.3236 22.2907 33.7343 21.976 34.2569 21.752C34.7796 21.5173 35.3823 21.4 36.0649 21.4ZM36.0649 22.44C35.4143 22.44 34.8863 22.5947 34.4809 22.904C34.0756 23.2027 33.8729 23.6027 33.8729 24.104C33.8729 24.6053 34.0756 25.0053 34.4809 25.304C34.8863 25.6027 35.4143 25.752 36.0649 25.752C36.7263 25.752 37.2543 25.6027 37.6489 25.304C38.0543 25.0053 38.2569 24.6053 38.2569 24.104C38.2569 23.6027 38.0543 23.2027 37.6489 22.904C37.2543 22.5947 36.7263 22.44 36.0649 22.44ZM35.4089 17.784H36.7369V20.088H35.4089V17.784ZM33.9849 30.84H43.6329V31.928H33.9849V30.84ZM33.9849 27.768H35.2969V31.288H33.9849V27.768ZM55.9138 18.008H57.0658V18.664C57.0658 19.176 56.9591 19.656 56.7458 20.104C56.5431 20.552 56.2551 20.968 55.8818 21.352C55.5191 21.7253 55.0925 22.0613 54.6018 22.36C54.1218 22.648 53.5991 22.8933 53.0338 23.096C52.4791 23.288 51.9085 23.432 51.3218 23.528L50.8098 22.472C51.3325 22.408 51.8391 22.296 52.3298 22.136C52.8311 21.9653 53.2951 21.7627 53.7218 21.528C54.1591 21.2827 54.5378 21.0107 54.8578 20.712C55.1885 20.4133 55.4445 20.0933 55.6258 19.752C55.8178 19.4 55.9138 19.0373 55.9138 18.664V18.008ZM56.1378 18.008H57.2738V18.664C57.2738 19.0373 57.3645 19.3947 57.5458 19.736C57.7378 20.0773 57.9991 20.3973 58.3298 20.696C58.6605 20.9947 59.0391 21.2667 59.4658 21.512C59.8925 21.7573 60.3511 21.9653 60.8418 22.136C61.3431 22.296 61.8498 22.408 62.3618 22.472L61.8658 23.528C61.2791 23.432 60.7031 23.2827 60.1378 23.08C59.5831 22.8773 59.0605 22.632 58.5698 22.344C58.0898 22.0453 57.6631 21.7093 57.2898 21.336C56.9271 20.952 56.6445 20.536 56.4418 20.088C56.2391 19.64 56.1378 19.1653 56.1378 18.664V18.008ZM50.0578 24.68H63.1298V25.752H50.0578V24.68ZM56.5858 27.096C58.1325 27.096 59.3431 27.3147 60.2178 27.752C61.0925 28.1893 61.5298 28.824 61.5298 29.656C61.5298 30.4773 61.0925 31.112 60.2178 31.56C59.3431 32.008 58.1325 32.232 56.5858 32.232C55.0391 32.232 53.8231 32.008 52.9378 31.56C52.0631 31.112 51.6258 30.4773 51.6258 29.656C51.6258 28.824 52.0631 28.1893 52.9378 27.752C53.8231 27.3147 55.0391 27.096 56.5858 27.096ZM56.5858 28.12C55.8285 28.12 55.1778 28.184 54.6338 28.312C54.1005 28.4293 53.6898 28.6 53.4018 28.824C53.1138 29.048 52.9698 29.3253 52.9698 29.656C52.9698 29.9867 53.1138 30.2693 53.4018 30.504C53.6898 30.728 54.1005 30.8987 54.6338 31.016C55.1778 31.1333 55.8285 31.192 56.5858 31.192C57.3431 31.192 57.9885 31.1333 58.5218 31.016C59.0658 30.8987 59.4818 30.728 59.7698 30.504C60.0578 30.2693 60.2018 29.9867 60.2018 29.656C60.2018 29.3253 60.0578 29.048 59.7698 28.824C59.4818 28.6 59.0658 28.4293 58.5218 28.312C57.9885 28.184 57.3431 28.12 56.5858 28.12ZM75.3046 17.784H76.6326V28.344H75.3046V17.784ZM67.3366 30.84H77.0806V31.928H67.3366V30.84ZM67.3366 27.272H68.6646V31.208H67.3366V27.272ZM68.8726 18.792C69.5979 18.792 70.2432 18.9413 70.8086 19.24C71.3739 19.5387 71.8219 19.96 72.1526 20.504C72.4832 21.0373 72.6486 21.6507 72.6486 22.344C72.6486 23.0373 72.4832 23.656 72.1526 24.2C71.8219 24.7333 71.3739 25.1547 70.8086 25.464C70.2432 25.7627 69.5979 25.912 68.8726 25.912C68.1579 25.912 67.5126 25.7627 66.9366 25.464C66.3712 25.1547 65.9232 24.7333 65.5926 24.2C65.2619 23.656 65.0966 23.0373 65.0966 22.344C65.0966 21.6507 65.2619 21.0373 65.5926 20.504C65.9232 19.96 66.3712 19.5387 66.9366 19.24C67.5126 18.9413 68.1579 18.792 68.8726 18.792ZM68.8726 19.944C68.4032 19.944 67.9819 20.0453 67.6086 20.248C67.2352 20.4507 66.9366 20.7333 66.7126 21.096C66.4992 21.4587 66.3926 21.8747 66.3926 22.344C66.3926 22.824 66.4992 23.2453 66.7126 23.608C66.9366 23.96 67.2352 24.2373 67.6086 24.44C67.9819 24.6427 68.4032 24.744 68.8726 24.744C69.3419 24.744 69.7632 24.6427 70.1366 24.44C70.5206 24.2373 70.8192 23.96 71.0326 23.608C71.2459 23.2453 71.3526 22.824 71.3526 22.344C71.3526 21.8747 71.2459 21.4587 71.0326 21.096C70.8192 20.7333 70.5206 20.4507 70.1366 20.248C69.7632 20.0453 69.3419 19.944 68.8726 19.944ZM83.0574 26.344H96.1774V27.416H83.0574V26.344ZM88.9294 26.84H90.2414V32.248H88.9294V26.84ZM84.7214 18.36H86.0334V20.344H93.1854V18.36H94.5134V24.616H84.7214V18.36ZM86.0334 21.416V23.528H93.1854V21.416H86.0334ZM98.4482 24.696H99.5522C100.523 24.696 101.371 24.6853 102.096 24.664C102.832 24.6427 103.504 24.6053 104.112 24.552C104.731 24.488 105.36 24.3973 106 24.28L106.144 25.352C105.494 25.4693 104.848 25.56 104.208 25.624C103.579 25.6773 102.891 25.7147 102.144 25.736C101.398 25.7573 100.534 25.768 99.5522 25.768H98.4482V24.696ZM98.4482 18.76H105.056V19.848H99.7762V25.096H98.4482V18.76ZM99.3442 21.688H104.8V22.744H99.3442V21.688ZM107.696 17.768H109.024V26.536H107.696V17.768ZM108.656 21.608H111.152V22.728H108.656V21.608ZM99.6162 27.256H109.024V32.248H107.696V28.344H99.6162V27.256ZM114.175 24.712H124.111V25.8H114.175V24.712ZM112.511 29.176H125.631V30.28H112.511V29.176ZM114.175 19.112H123.967V20.2H115.487V25.192H114.175V19.112ZM137.758 17.784H139.086V25.736H137.758V17.784ZM127.982 24.328H129.15C130.024 24.328 130.835 24.3173 131.582 24.296C132.339 24.2747 133.075 24.232 133.79 24.168C134.504 24.0933 135.246 23.9973 136.014 23.88L136.174 24.968C135.374 25.096 134.606 25.192 133.87 25.256C133.144 25.32 132.398 25.368 131.63 25.4C130.872 25.4213 130.046 25.432 129.15 25.432H127.982V24.328ZM127.95 18.472H134.51V22.408H129.278V25.048H127.982V21.368H133.214V19.56H127.95V18.472ZM129.742 26.456H131.054V28.152H137.774V26.456H139.086V32.056H129.742V26.456ZM131.054 29.208V30.968H137.774V29.208H131.054ZM152.476 17.768H153.788V32.248H152.476V17.768ZM142.86 19.192H144.172V28.152H142.86V19.192ZM142.86 27.368H144.044C145.154 27.368 146.279 27.32 147.42 27.224C148.572 27.1173 149.756 26.9413 150.972 26.696L151.148 27.816C149.89 28.0827 148.679 28.2693 147.516 28.376C146.354 28.472 145.196 28.52 144.044 28.52H142.86V27.368ZM166.459 17.768H167.787V32.264H166.459V17.768ZM167.483 23.48H170.155V24.584H167.483V23.48ZM157.291 27.528H158.427C159.313 27.528 160.123 27.5173 160.859 27.496C161.606 27.464 162.321 27.4107 163.003 27.336C163.697 27.2613 164.401 27.16 165.115 27.032L165.275 28.168C164.529 28.296 163.803 28.3973 163.099 28.472C162.406 28.5467 161.681 28.5947 160.923 28.616C160.166 28.6373 159.334 28.648 158.427 28.648H157.291V27.528ZM157.291 19.176H163.995V20.264H158.603V28.04H157.291V19.176ZM172.666 27.464L172.458 20.68L172.426 19.016H173.898L173.866 20.68L173.674 27.464H172.666ZM173.162 31.208C172.874 31.208 172.623 31.1067 172.41 30.904C172.207 30.6907 172.106 30.424 172.106 30.104C172.106 29.7627 172.207 29.4907 172.41 29.288C172.623 29.0853 172.874 28.984 173.162 28.984C173.461 28.984 173.711 29.0853 173.914 29.288C174.117 29.4907 174.218 29.7627 174.218 30.104C174.218 30.424 174.117 30.6907 173.914 30.904C173.711 31.1067 173.461 31.208 173.162 31.208Z" fill="currentColor"/>
</svg>

