<svg width="16" height="16" viewBox="0 0 16 16" fill="currentColor" xmlns="http://www.w3.org/2000/svg">
<path d="M2.66536 13.3337C2.2987 13.3337 1.98481 13.2031 1.7237 12.942C1.46259 12.6809 1.33203 12.367 1.33203 12.0003V4.00033C1.33203 3.63366 1.46259 3.31977 1.7237 3.05866C1.98481 2.79755 2.2987 2.66699 2.66536 2.66699H6.66536L7.9987 4.00033H13.332C13.6987 4.00033 14.0126 4.13088 14.2737 4.39199C14.5348 4.6531 14.6654 4.96699 14.6654 5.33366V12.0003C14.6654 12.367 14.5348 12.6809 14.2737 12.942C14.0126 13.2031 13.6987 13.3337 13.332 13.3337H2.66536ZM2.66536 12.0003H13.332V5.33366H7.4487L6.11536 4.00033H2.66536V12.0003Z" fill="currentColor"/>
</svg>

