<svg width="20" height="20" viewBox="0 0 20 20" fill="currentColor" xmlns="http://www.w3.org/2000/svg">
<path d="M11.668 13.333H13.3346V11.6663H15.0013V9.99967H13.3346V8.33301H11.668V9.99967H10.0013V11.6663H11.668V13.333ZM3.33464 16.6663C2.8763 16.6663 2.48394 16.5031 2.15755 16.1768C1.83116 15.8504 1.66797 15.458 1.66797 14.9997V4.99967C1.66797 4.54134 1.83116 4.14898 2.15755 3.82259C2.48394 3.4962 2.8763 3.33301 3.33464 3.33301H8.33464L10.0013 4.99967H16.668C17.1263 4.99967 17.5187 5.16287 17.8451 5.48926C18.1714 5.81565 18.3346 6.20801 18.3346 6.66634V14.9997C18.3346 15.458 18.1714 15.8504 17.8451 16.1768C17.5187 16.5031 17.1263 16.6663 16.668 16.6663H3.33464ZM3.33464 14.9997H16.668V6.66634H9.3138L7.64714 4.99967H3.33464V14.9997Z" fill="currentColor"/>
</svg>

