<svg width="20" height="20" viewBox="0 0 20 20" fill="currentColor" xmlns="http://www.w3.org/2000/svg">
<path d="M9.9987 16.6663C8.13759 16.6663 6.5612 16.0205 5.26953 14.7288C3.97786 13.4372 3.33203 11.8608 3.33203 9.99967C3.33203 8.13856 3.97786 6.56217 5.26953 5.27051C6.5612 3.97884 8.13759 3.33301 9.9987 3.33301C10.957 3.33301 11.8737 3.53092 12.7487 3.92676C13.6237 4.32259 14.3737 4.88856 14.9987 5.62467V3.33301H16.6654V9.16634H10.832V7.49967H14.332C13.8876 6.7219 13.2799 6.11079 12.5091 5.66634C11.7383 5.2219 10.9015 4.99967 9.9987 4.99967C8.60981 4.99967 7.42925 5.48579 6.45703 6.45801C5.48481 7.43023 4.9987 8.61079 4.9987 9.99967C4.9987 11.3886 5.48481 12.5691 6.45703 13.5413C7.42925 14.5136 8.60981 14.9997 9.9987 14.9997C11.0681 14.9997 12.0334 14.6941 12.8945 14.083C13.7556 13.4719 14.3598 12.6663 14.707 11.6663H16.457C16.0681 13.1386 15.2765 14.34 14.082 15.2705C12.8876 16.2011 11.5265 16.6663 9.9987 16.6663Z" fill="currentColor"/>
</svg>

