<svg width="24" height="24" viewBox="0 0 24 24" fill="none" xmlns="http://www.w3.org/2000/svg">
<path d="M18.6267 12.4369C18.5999 9.47541 21.0382 8.0525 21.1481 7.98257C19.7762 5.96789 17.6433 5.69353 16.8823 5.66125C15.0683 5.47566 13.3401 6.73449 12.4183 6.73449C11.4966 6.73449 10.0765 5.68815 8.57062 5.71774C6.59049 5.74733 4.76577 6.87167 3.74489 8.65233C1.68974 12.2298 3.21972 17.5368 5.22396 20.4445C6.20465 21.8647 7.37022 23.4651 8.90555 23.406C10.3846 23.3468 10.942 22.4457 12.7265 22.4457C14.511 22.4457 15.0147 23.406 16.5742 23.3764C18.1631 23.3441 19.1706 21.9239 20.1433 20.4983C21.266 18.8494 21.7295 17.2517 21.7563 17.1683C21.7215 17.1548 18.6588 15.9767 18.6267 12.4369Z" fill="currentColor"/>
<path d="M15.6925 3.73881C16.5066 2.74897 17.0559 1.37124 16.906 0C15.7325 0.0486487 14.3123 0.784865 13.471 1.77535C12.7182 2.64973 12.0495 4.05081 12.2356 5.39611C13.5408 5.49859 14.8783 4.72605 15.6925 3.73946" fill="currentColor"/>
</svg>
