<svg width="141" height="25" viewBox="0 0 141 25" fill="none" xmlns="http://www.w3.org/2000/svg">
<path d="M7.27915 20.3694C7.27915 22.381 5.64965 24.0116 3.63957 24.0116C1.62949 24.0116 0 22.381 0 20.3694C0 18.3579 1.62949 16.7273 3.63957 16.7273C5.64965 16.7273 7.27915 18.3579 7.27915 20.3694Z" fill="#FEFEFE"/>
<path d="M17.8045 0L23.5856 16.7815C24.7742 20.2321 22.3025 23.8229 18.7088 23.993L18.7129 24H11.083L4.17885 12.3636H11.8088L18.0671 22.9116L10.1746 0H17.8045Z" fill="#FEFEFE"/>
<path d="M36.2734 11.8848C36.2734 10.6944 36.4781 9.6128 36.8874 8.64C37.2967 7.6544 37.8659 6.816 38.595 6.1248C39.3241 5.4336 40.181 4.9024 41.1659 4.5312C42.1636 4.1472 43.2381 3.9552 44.3892 3.9552C45.5532 3.9552 46.6276 4.1472 47.6125 4.5312C48.6102 4.9024 49.4672 5.4336 50.1835 6.1248C50.9126 6.816 51.4754 7.6544 51.8719 8.64C52.2812 9.6128 52.4859 10.6944 52.4859 11.8848C52.4859 13.088 52.2812 14.1824 51.8719 15.168C51.4754 16.1408 50.9126 16.9728 50.1835 17.664C49.4672 18.368 48.6102 18.9056 47.6125 19.2768C46.6276 19.6608 45.5532 19.8528 44.3892 19.8528C43.2381 19.8528 42.1636 19.6608 41.1659 19.2768C40.181 18.9056 39.3241 18.368 38.595 17.664C37.8659 16.9728 37.2967 16.1408 36.8874 15.168C36.4781 14.1824 36.2734 13.088 36.2734 11.8848ZM39.3049 11.8848C39.3049 12.7424 39.4392 13.5168 39.7078 14.208C39.9764 14.8864 40.3409 15.4688 40.8014 15.9552C41.2619 16.4288 41.7991 16.7936 42.4131 17.0496C43.0398 17.3056 43.6985 17.4336 44.3892 17.4336C45.0927 17.4336 45.7515 17.3056 46.3654 17.0496C46.9794 16.7936 47.5166 16.4288 47.9771 15.9552C48.4375 15.4688 48.7957 14.8864 49.0515 14.208C49.3201 13.5168 49.4544 12.7424 49.4544 11.8848C49.4544 11.04 49.3201 10.2848 49.0515 9.6192C48.7957 8.9408 48.4375 8.3648 47.9771 7.8912C47.5166 7.4048 46.9794 7.0336 46.3654 6.7776C45.7515 6.5216 45.0927 6.3936 44.3892 6.3936C43.6857 6.3936 43.0206 6.5216 42.3939 6.7776C41.7799 7.0336 41.2427 7.4048 40.7822 7.8912C40.3217 8.3648 39.9572 8.9408 39.6886 9.6192C39.4328 10.2848 39.3049 11.04 39.3049 11.8848Z" fill="#FEFEFE"/>
<path d="M57.1274 9.4464C57.3321 9.2032 57.5815 8.9856 57.8757 8.7936C58.1827 8.6016 58.5089 8.4416 58.8542 8.3136C59.1996 8.1728 59.5577 8.0704 59.9286 8.0064C60.2996 7.9296 60.6577 7.8912 61.0031 7.8912C61.7066 7.8912 62.3653 8 62.9793 8.2176C63.5932 8.4352 64.1304 8.7424 64.5909 9.1392C65.0514 9.5232 65.4095 9.9968 65.6653 10.56C65.934 11.1104 66.0683 11.7248 66.0683 12.4032V19.4688H63.0368V13.44C63.0368 12.3136 62.7938 11.5008 62.3077 11.0016C61.8217 10.4896 61.1566 10.2336 60.3124 10.2336C59.5833 10.2336 58.9437 10.4832 58.3937 10.9824C57.8565 11.4688 57.5048 12.1472 57.3385 13.0176V19.4688H54.3071V8.2752H56.878L57.1274 9.4464Z" fill="#FEFEFE"/>
<path d="M71.2539 15.7824C71.5226 16.3968 71.9319 16.8704 72.4819 17.2032C73.0319 17.536 73.7162 17.7024 74.5348 17.7024C75.3023 17.7024 75.9994 17.5744 76.6261 17.3184C77.2657 17.0624 77.8412 16.6272 78.3529 16.0128L80.2907 17.4912C79.6256 18.2976 78.8261 18.9248 77.8924 19.3728C76.9587 19.8208 75.9418 20.0448 74.8418 20.0448C73.8953 20.0448 73.0127 19.8976 72.1941 19.6032C71.3755 19.3216 70.6592 18.912 70.0452 18.3744C69.444 17.8496 68.9644 17.2096 68.6062 16.4544C68.2609 15.6864 68.0882 14.8288 68.0882 13.8816C68.0882 12.96 68.2545 12.1216 68.5871 11.3664C68.9196 10.5984 69.3737 9.9456 69.9493 9.408C70.5249 8.8576 71.2028 8.4352 71.983 8.1408C72.7761 7.8336 73.6331 7.68 74.554 7.68C75.4494 7.68 76.268 7.8272 77.0098 8.1216C77.7645 8.416 78.4168 8.8256 78.9668 9.3504C79.5168 9.8624 79.9517 10.4832 80.2715 11.2128C80.6041 11.9296 80.7895 12.7168 80.8279 13.5744L71.2539 15.7824ZM74.6883 10.0224C73.5499 10.0224 72.6482 10.3424 71.983 10.9824C71.3307 11.6096 70.9725 12.4672 70.9086 13.5552L77.8157 11.904C77.4831 11.2384 77.0482 10.7584 76.511 10.464C75.9738 10.1696 75.3662 10.0224 74.6883 10.0224Z" fill="#FEFEFE"/>
<path d="M87.8456 4.3584H94.6759C95.6608 4.3584 96.5626 4.5504 97.3812 4.9344C98.1998 5.3184 98.8969 5.8496 99.4725 6.528C100.061 7.1936 100.515 7.9872 100.835 8.9088C101.167 9.8304 101.334 10.8224 101.334 11.8848C101.334 12.9856 101.167 14.0032 100.835 14.9376C100.502 15.8592 100.016 16.6592 99.3766 17.3376C98.7498 18.0032 97.976 18.5216 97.055 18.8928C96.1469 19.2768 95.1108 19.4688 93.9468 19.4688H87.8456V4.3584ZM90.877 17.1264H93.7166C94.4713 17.1264 95.13 16.992 95.6928 16.7232C96.2684 16.4544 96.748 16.0896 97.1318 15.6288C97.5155 15.1552 97.8033 14.5984 97.9951 13.9584C98.1998 13.3056 98.3021 12.5952 98.3021 11.8272C98.3021 11.072 98.1934 10.3808 97.976 9.7536C97.7585 9.1264 97.4387 8.5888 97.0166 8.1408C96.5946 7.68 96.0765 7.328 95.4626 7.0848C94.8614 6.8288 94.1771 6.7008 93.4096 6.7008H90.877V17.1264Z" fill="#FEFEFE"/>
<path d="M105.935 15.7824C106.204 16.3968 106.613 16.8704 107.163 17.2032C107.713 17.536 108.398 17.7024 109.216 17.7024C109.984 17.7024 110.681 17.5744 111.308 17.3184C111.947 17.0624 112.523 16.6272 113.034 16.0128L114.972 17.4912C114.307 18.2976 113.508 18.9248 112.574 19.3728C111.64 19.8208 110.623 20.0448 109.523 20.0448C108.577 20.0448 107.694 19.8976 106.876 19.6032C106.057 19.3216 105.341 18.912 104.727 18.3744C104.126 17.8496 103.646 17.2096 103.288 16.4544C102.942 15.6864 102.77 14.8288 102.77 13.8816C102.77 12.96 102.936 12.1216 103.269 11.3664C103.601 10.5984 104.055 9.9456 104.631 9.408C105.206 8.8576 105.884 8.4352 106.665 8.1408C107.458 7.8336 108.315 7.68 109.235 7.68C110.131 7.68 110.949 7.8272 111.691 8.1216C112.446 8.416 113.098 8.8256 113.648 9.3504C114.198 9.8624 114.633 10.4832 114.953 11.2128C115.286 11.9296 115.471 12.7168 115.509 13.5744L105.935 15.7824ZM109.37 10.0224C108.231 10.0224 107.33 10.3424 106.665 10.9824C106.012 11.6096 105.654 12.4672 105.59 13.5552L112.497 11.904C112.165 11.2384 111.73 10.7584 111.192 10.464C110.655 10.1696 110.048 10.0224 109.37 10.0224Z" fill="#FEFEFE"/>
<path d="M125.203 11.1168C124.717 10.7712 124.18 10.5088 123.592 10.3296C123.016 10.1376 122.485 10.0416 121.999 10.0416C120.72 10.0416 120.081 10.4128 120.081 11.1552C120.081 11.4496 120.189 11.7056 120.407 11.9232C120.624 12.128 121.04 12.3008 121.654 12.4416C123.355 12.8384 124.602 13.3504 125.395 13.9776C126.188 14.6048 126.585 15.4112 126.585 16.3968C126.585 17.0112 126.463 17.5488 126.22 18.0096C125.99 18.4704 125.664 18.848 125.242 19.1424C124.82 19.4496 124.308 19.6736 123.707 19.8144C123.119 19.968 122.46 20.0448 121.731 20.0448C120.733 20.0448 119.825 19.904 119.006 19.6224C118.2 19.3536 117.439 18.9696 116.723 18.4704L117.817 16.3392C118.303 16.7488 118.846 17.0752 119.448 17.3184C120.049 17.5616 120.695 17.6832 121.385 17.6832C122.217 17.6832 122.786 17.5872 123.093 17.3952C123.4 17.2032 123.553 16.8832 123.553 16.4352C123.553 16.0512 123.374 15.7376 123.016 15.4944C122.671 15.2512 122.166 15.04 121.5 14.8608C120.695 14.6432 120.01 14.4192 119.448 14.1888C118.885 13.9584 118.424 13.7024 118.066 13.4208C117.721 13.1264 117.465 12.7936 117.299 12.4224C117.132 12.0384 117.049 11.5904 117.049 11.0784C117.049 10.5664 117.158 10.1056 117.375 9.696C117.593 9.2736 117.9 8.9152 118.296 8.6208C118.706 8.3264 119.192 8.1024 119.755 7.9488C120.317 7.7824 120.944 7.6992 121.635 7.6992C122.172 7.6992 122.652 7.7376 123.074 7.8144C123.509 7.8784 123.905 7.9744 124.263 8.1024C124.634 8.2304 124.973 8.384 125.28 8.5632C125.587 8.7296 125.881 8.9152 126.163 9.12L125.203 11.1168Z" fill="#FEFEFE"/>
<path d="M136.382 19.4688L131.835 14.7264V19.4688H128.804V4.3584H131.835V12.4224L136.191 8.2752H139.855L134.329 13.4976L140.047 19.4688H136.382Z" fill="#FEFEFE"/>
</svg>

