<svg width="20" height="20" viewBox="0 0 20 20" fill="currentColor" xmlns="http://www.w3.org/2000/svg">
<path d="M7.4987 5.5L7.49929 0.5H19.167L19.1664 5.5H7.4987ZM9.16536 3.83333H17.4997L17.5003 2.16667H9.16595L9.16536 3.83333Z" fill="currentColor"/>
<path d="M0.832031 5.5L0.832619 0.5H5.83306L5.83247 5.5H0.832031ZM2.4987 3.83333H4.1658L4.16639 2.16667H2.49929L2.4987 3.83333Z" fill="currentColor"/>
<path d="M7.4987 12.5L7.49929 7.5H19.167L19.1664 12.5H7.4987ZM9.16536 10.8333H17.4997L17.5003 9.16667H9.16595L9.16536 10.8333Z" fill="currentColor"/>
<path d="M0.832031 12.5L0.832619 7.5H5.83306L5.83247 12.5H0.832031ZM2.4987 10.8333H4.1658L4.16639 9.16667H2.49929L2.4987 10.8333Z" fill="currentColor"/>
<path d="M7.4987 19.5L7.49929 14.5H19.167L19.1664 19.5H7.4987ZM9.16536 17.8333H17.4997L17.5003 16.1667H9.16595L9.16536 17.8333Z" fill="currentColor"/>
<path d="M0.832031 19.5L0.832619 14.5H5.83306L5.83247 19.5H0.832031ZM2.4987 17.8333H4.1658L4.16639 16.1667H2.49929L2.4987 17.8333Z" fill="currentColor"/>
</svg>

