<svg width="20" height="20" viewBox="0 0 20 20" fill="currentColor" xmlns="http://www.w3.org/2000/svg">
<path d="M12.5003 13.3333H15.8337V10H14.5837V12.0833H12.5003V13.3333ZM4.16699 8.33333H5.41699V6.25H7.50033V5H4.16699V8.33333ZM6.66699 17.5V15.8333H3.33366C2.87533 15.8333 2.48296 15.6701 2.15658 15.3438C1.83019 15.0174 1.66699 14.625 1.66699 14.1667V4.16667C1.66699 3.70833 1.83019 3.31597 2.15658 2.98958C2.48296 2.66319 2.87533 2.5 3.33366 2.5H16.667C17.1253 2.5 17.5177 2.66319 17.8441 2.98958C18.1705 3.31597 18.3337 3.70833 18.3337 4.16667V14.1667C18.3337 14.625 18.1705 15.0174 17.8441 15.3438C17.5177 15.6701 17.1253 15.8333 16.667 15.8333H13.3337V17.5H6.66699ZM3.33366 14.1667H16.667V4.16667H3.33366V14.1667Z" fill="currentColor"/>
</svg>

