<svg width="20" height="20" viewBox="0 0 20 20" fill="currentColor" xmlns="http://www.w3.org/2000/svg">
<path d="M10.6455 16.6663H3.33301V14.333C3.33301 13.8608 3.45454 13.4268 3.69759 13.0309C3.94065 12.6351 4.26356 12.333 4.66634 12.1247C5.52745 11.6941 6.40245 11.3712 7.29134 11.1559C8.18023 10.9406 9.08301 10.833 9.99967 10.833V12.4997C9.2219 12.4997 8.45106 12.5934 7.68717 12.7809C6.92329 12.9684 6.16634 13.2497 5.41634 13.6247C5.29134 13.6941 5.19065 13.7913 5.11426 13.9163C5.03787 14.0413 4.99967 14.1802 4.99967 14.333V14.9997H10.1038C10.1594 15.2913 10.2323 15.5761 10.3226 15.8538C10.4129 16.1316 10.5205 16.4025 10.6455 16.6663ZM14.9997 18.333C13.9858 18.083 13.1768 17.5275 12.5726 16.6663C11.9684 15.8052 11.6663 14.8469 11.6663 13.7913V11.6663L14.9997 9.99967L18.333 11.6663V13.7913C18.333 14.8469 18.0309 15.8052 17.4268 16.6663C16.8226 17.5275 16.0136 18.083 14.9997 18.333ZM14.9997 16.583C15.5275 16.333 15.9372 15.9511 16.2288 15.4372C16.5205 14.9233 16.6663 14.3747 16.6663 13.7913V12.708L14.9997 11.8747L13.333 12.708V13.7913C13.333 14.3747 13.4788 14.9233 13.7705 15.4372C14.0622 15.9511 14.4719 16.333 14.9997 16.583ZM9.99967 9.99967C9.08301 9.99967 8.29829 9.67329 7.64551 9.02051C6.99273 8.36773 6.66634 7.58301 6.66634 6.66634C6.66634 5.74967 6.99273 4.96495 7.64551 4.31217C8.29829 3.6594 9.08301 3.33301 9.99967 3.33301C10.9163 3.33301 11.7011 3.6594 12.3538 4.31217C13.0066 4.96495 13.333 5.74967 13.333 6.66634C13.333 7.58301 13.0066 8.36773 12.3538 9.02051C11.7011 9.67329 10.9163 9.99967 9.99967 9.99967ZM9.99967 8.33301C10.458 8.33301 10.8504 8.16981 11.1768 7.84342C11.5031 7.51704 11.6663 7.12467 11.6663 6.66634C11.6663 6.20801 11.5031 5.81565 11.1768 5.48926C10.8504 5.16287 10.458 4.99967 9.99967 4.99967C9.54134 4.99967 9.14898 5.16287 8.82259 5.48926C8.4962 5.81565 8.33301 6.20801 8.33301 6.66634C8.33301 7.12467 8.4962 7.51704 8.82259 7.84342C9.14898 8.16981 9.54134 8.33301 9.99967 8.33301Z" fill="currentColor"/>
</svg>

