<svg width="20" height="20" viewBox="0 0 20 20" fill="currentColor" xmlns="http://www.w3.org/2000/svg">
<path d="M14.792 12.4577L13.5837 11.2493C13.7781 10.9299 13.9239 10.5966 14.0212 10.2493C14.1184 9.90213 14.167 9.54102 14.167 9.16602H15.8337C15.8337 9.77713 15.7434 10.357 15.5628 10.9056C15.3823 11.4542 15.1253 11.9716 14.792 12.4577ZM12.3337 9.95768L10.8337 8.45768V4.16602C10.8337 3.9299 10.7538 3.73199 10.5941 3.57227C10.4344 3.41254 10.2364 3.33268 10.0003 3.33268C9.76422 3.33268 9.5663 3.41254 9.40658 3.57227C9.24685 3.73199 9.16699 3.9299 9.16699 4.16602V6.79102L7.50033 5.12435V4.16602C7.50033 3.47157 7.74338 2.88129 8.22949 2.39518C8.7156 1.90907 9.30588 1.66602 10.0003 1.66602C10.6948 1.66602 11.285 1.90907 11.7712 2.39518C12.2573 2.88129 12.5003 3.47157 12.5003 4.16602V9.16602C12.5003 9.31879 12.483 9.45768 12.4482 9.58268C12.4135 9.70768 12.3753 9.83268 12.3337 9.95768ZM9.16699 17.4993V14.9368C7.72255 14.7424 6.5281 14.0966 5.58366 12.9993C4.63921 11.9021 4.16699 10.6243 4.16699 9.16602H5.83366C5.83366 10.3188 6.23296 11.3014 7.03158 12.1139C7.83019 12.9264 8.81977 13.3327 10.0003 13.3327C10.4725 13.3327 10.9205 13.2598 11.3441 13.1139C11.7677 12.9681 12.1531 12.7632 12.5003 12.4993L13.6878 13.6868C13.285 14.0063 12.8441 14.2771 12.3649 14.4993C11.8857 14.7216 11.3753 14.8674 10.8337 14.9368V17.4993H9.16699ZM16.5003 18.8327L1.16699 3.49935L2.33366 2.33268L17.667 17.666L16.5003 18.8327Z" fill="currentColor"/>
</svg>

