<svg width="18" height="18" viewBox="0 0 18 18" fill="currentColor" xmlns="http://www.w3.org/2000/svg">
<path d="M14.8508 17.0258L10.6883 12.8633C9.57578 13.7633 8.36641 14.4695 7.06016 14.982C5.75391 15.4945 4.41328 15.7508 3.03828 15.7508C2.73828 15.7508 2.53203 15.6758 2.41953 15.5258C2.30703 15.3758 2.25078 15.1883 2.25078 14.9633V11.9258C2.25078 11.7508 2.30703 11.5977 2.41953 11.4664C2.53203 11.3352 2.67578 11.2508 2.85078 11.2133L5.43828 10.6883C5.57578 10.6633 5.74766 10.682 5.95391 10.7445C6.16016 10.807 6.31328 10.8883 6.41328 10.9883L8.17578 12.7508C8.40078 12.6133 8.64453 12.457 8.90703 12.282C9.16953 12.107 9.40078 11.9383 9.60078 11.7758L1.05078 3.22578L2.10078 2.17578L15.9008 15.9758L14.8508 17.0258ZM6.75078 13.4258L5.51328 12.1883L3.75078 12.5633V14.2133C4.26328 14.1758 4.76953 14.0883 5.26953 13.9508C5.76953 13.8133 6.26328 13.6383 6.75078 13.4258ZM12.7883 10.7258L11.7383 9.67578C11.9258 9.46328 12.1164 9.21953 12.3102 8.94453C12.5039 8.66953 12.657 8.41328 12.7695 8.17578L10.9508 6.33828C10.8508 6.23828 10.782 6.09766 10.7445 5.91641C10.707 5.73516 10.7008 5.58828 10.7258 5.47578L11.2133 2.85078C11.2508 2.67578 11.3352 2.53203 11.4664 2.41953C11.5977 2.30703 11.7508 2.25078 11.9258 2.25078H14.9633C15.1883 2.25078 15.3758 2.32578 15.5258 2.47578C15.6758 2.62578 15.7508 2.81328 15.7508 3.03828C15.7508 4.41328 15.4883 5.75391 14.9633 7.06016C14.4383 8.36641 13.7133 9.58828 12.7883 10.7258ZM13.4633 6.75078C13.6758 6.26328 13.8383 5.76953 13.9508 5.26953C14.0633 4.76953 14.1508 4.26328 14.2133 3.75078H12.5633L12.2258 5.51328L13.4633 6.75078Z" fill="currentColor"/>
</svg>

