<svg width="20" height="20" viewBox="0 0 20 20" fill="currentColor" xmlns="http://www.w3.org/2000/svg">
<path d="M10.0013 11.668C9.30686 11.668 8.71658 11.4249 8.23047 10.9388C7.74436 10.4527 7.5013 9.86241 7.5013 9.16797V4.16797C7.5013 3.47352 7.74436 2.88325 8.23047 2.39714C8.71658 1.91102 9.30686 1.66797 10.0013 1.66797C10.6957 1.66797 11.286 1.91102 11.7721 2.39714C12.2582 2.88325 12.5013 3.47352 12.5013 4.16797V9.16797C12.5013 9.86241 12.2582 10.4527 11.7721 10.9388C11.286 11.4249 10.6957 11.668 10.0013 11.668ZM9.16797 17.5013V14.9388C7.72352 14.7444 6.52908 14.0985 5.58464 13.0013C4.64019 11.9041 4.16797 10.6263 4.16797 9.16797H5.83464C5.83464 10.3207 6.24089 11.3034 7.05339 12.1159C7.86589 12.9284 8.84853 13.3346 10.0013 13.3346C11.1541 13.3346 12.1367 12.9284 12.9492 12.1159C13.7617 11.3034 14.168 10.3207 14.168 9.16797H15.8346C15.8346 10.6263 15.3624 11.9041 14.418 13.0013C13.4735 14.0985 12.2791 14.7444 10.8346 14.9388V17.5013H9.16797ZM10.0013 10.0013C10.2374 10.0013 10.4353 9.92144 10.5951 9.76172C10.7548 9.602 10.8346 9.40408 10.8346 9.16797V4.16797C10.8346 3.93186 10.7548 3.73394 10.5951 3.57422C10.4353 3.4145 10.2374 3.33464 10.0013 3.33464C9.76519 3.33464 9.56728 3.4145 9.40755 3.57422C9.24783 3.73394 9.16797 3.93186 9.16797 4.16797V9.16797C9.16797 9.40408 9.24783 9.602 9.40755 9.76172C9.56728 9.92144 9.76519 10.0013 10.0013 10.0013Z" fill="currentColor"/>
</svg>

