<svg width="20" height="20" viewBox="0 0 20 20" fill="currentColor" xmlns="http://www.w3.org/2000/svg">
<path d="M3.33366 15.8337C2.87533 15.8337 2.48296 15.6705 2.15658 15.3441C1.83019 15.0177 1.66699 14.6253 1.66699 14.167V5.83366C1.66699 5.37533 1.83019 4.98296 2.15658 4.65658C2.48296 4.33019 2.87533 4.16699 3.33366 4.16699H16.667C17.1253 4.16699 17.5177 4.33019 17.8441 4.65658C18.1705 4.98296 18.3337 5.37533 18.3337 5.83366V14.167C18.3337 14.6253 18.1705 15.0177 17.8441 15.3441C17.5177 15.6705 17.1253 15.8337 16.667 15.8337H3.33366ZM3.33366 14.167H16.667V5.83366H3.33366V14.167ZM6.66699 13.3337H13.3337V11.667H6.66699V13.3337ZM4.16699 10.8337H5.83366V9.16699H4.16699V10.8337ZM6.66699 10.8337H8.33366V9.16699H6.66699V10.8337ZM9.16699 10.8337H10.8337V9.16699H9.16699V10.8337ZM11.667 10.8337H13.3337V9.16699H11.667V10.8337ZM14.167 10.8337H15.8337V9.16699H14.167V10.8337ZM4.16699 8.33366H5.83366V6.66699H4.16699V8.33366ZM6.66699 8.33366H8.33366V6.66699H6.66699V8.33366ZM9.16699 8.33366H10.8337V6.66699H9.16699V8.33366ZM11.667 8.33366H13.3337V6.66699H11.667V8.33366ZM14.167 8.33366H15.8337V6.66699H14.167V8.33366Z" fill="currentColor"/>
</svg>

