<svg width="20" height="20" viewBox="0 0 20 20" fill="currentColor" xmlns="http://www.w3.org/2000/svg">
<path d="M10.167 11.6663L8.81283 13.0205L9.97949 14.1872L13.3337 10.833L9.97949 7.47884L8.81283 8.64551L10.167 9.99967H6.66699V11.6663H10.167ZM3.33366 16.6663C2.87533 16.6663 2.48296 16.5031 2.15658 16.1768C1.83019 15.8504 1.66699 15.458 1.66699 14.9997V4.99967C1.66699 4.54134 1.83019 4.14898 2.15658 3.82259C2.48296 3.4962 2.87533 3.33301 3.33366 3.33301H8.33366L10.0003 4.99967H16.667C17.1253 4.99967 17.5177 5.16287 17.8441 5.48926C18.1705 5.81565 18.3337 6.20801 18.3337 6.66634V14.9997C18.3337 15.458 18.1705 15.8504 17.8441 16.1768C17.5177 16.5031 17.1253 16.6663 16.667 16.6663H3.33366ZM3.33366 14.9997H16.667V6.66634H9.31283L7.64616 4.99967H3.33366V14.9997Z" fill="currentColor"/>
</svg>

