<svg width="20" height="20" viewBox="0 0 20 20" fill="currentColor" xmlns="http://www.w3.org/2000/svg">
<path d="M3.33366 16.6673C2.87533 16.6673 2.48296 16.5041 2.15658 16.1777C1.83019 15.8513 1.66699 15.459 1.66699 15.0007V5.00065C1.66699 4.54232 1.83019 4.14996 2.15658 3.82357C2.48296 3.49718 2.87533 3.33398 3.33366 3.33398H13.3337C13.792 3.33398 14.1844 3.49718 14.5107 3.82357C14.8371 4.14996 15.0003 4.54232 15.0003 5.00065V8.75065L18.3337 5.41732V14.584L15.0003 11.2507V15.0007C15.0003 15.459 14.8371 15.8513 14.5107 16.1777C14.1844 16.5041 13.792 16.6673 13.3337 16.6673H3.33366ZM3.33366 15.0007H13.3337V5.00065H3.33366V15.0007Z" fill="currentColor"/>
</svg>

