<svg width="20" height="20" viewBox="0 0 20 20" fill="currentColor" xmlns="http://www.w3.org/2000/svg">
<path d="M10.0013 14.5833C11.043 14.5833 11.9284 14.2188 12.6576 13.4896C13.3867 12.7604 13.7513 11.875 13.7513 10.8333C13.7513 9.79167 13.3867 8.90625 12.6576 8.17708C11.9284 7.44792 11.043 7.08333 10.0013 7.08333C8.95964 7.08333 8.07422 7.44792 7.34505 8.17708C6.61589 8.90625 6.2513 9.79167 6.2513 10.8333C6.2513 11.875 6.61589 12.7604 7.34505 13.4896C8.07422 14.2188 8.95964 14.5833 10.0013 14.5833ZM10.0013 12.9167C9.41797 12.9167 8.92491 12.7153 8.52214 12.3125C8.11936 11.9097 7.91797 11.4167 7.91797 10.8333C7.91797 10.25 8.11936 9.75694 8.52214 9.35417C8.92491 8.95139 9.41797 8.75 10.0013 8.75C10.5846 8.75 11.0777 8.95139 11.4805 9.35417C11.8832 9.75694 12.0846 10.25 12.0846 10.8333C12.0846 11.4167 11.8832 11.9097 11.4805 12.3125C11.0777 12.7153 10.5846 12.9167 10.0013 12.9167ZM3.33464 17.5C2.8763 17.5 2.48394 17.3368 2.15755 17.0104C1.83116 16.684 1.66797 16.2917 1.66797 15.8333V5.83333C1.66797 5.375 1.83116 4.98264 2.15755 4.65625C2.48394 4.32986 2.8763 4.16667 3.33464 4.16667H5.95964L7.5013 2.5H12.5013L14.043 4.16667H16.668C17.1263 4.16667 17.5187 4.32986 17.8451 4.65625C18.1714 4.98264 18.3346 5.375 18.3346 5.83333V15.8333C18.3346 16.2917 18.1714 16.684 17.8451 17.0104C17.5187 17.3368 17.1263 17.5 16.668 17.5H3.33464ZM3.33464 15.8333H16.668V5.83333H13.293L11.7721 4.16667H8.23047L6.70964 5.83333H3.33464V15.8333Z" fill="currentColor"/>
</svg>

