<svg width="19" height="19" viewBox="0 0 19 19" fill="currentColor" xmlns="http://www.w3.org/2000/svg">
<path d="M9.50065 17.4168C7.9701 17.4168 6.66385 16.8759 5.5819 15.7939C4.49996 14.712 3.95898 13.4057 3.95898 11.8752V7.12516C3.95898 5.59461 4.49996 4.28836 5.5819 3.20641C6.66385 2.12447 7.9701 1.5835 9.50065 1.5835C11.0312 1.5835 12.3375 2.12447 13.4194 3.20641C14.5013 4.28836 15.0423 5.59461 15.0423 7.12516V11.8752C15.0423 13.4057 14.5013 14.712 13.4194 15.7939C12.3375 16.8759 11.0312 17.4168 9.50065 17.4168ZM10.2923 7.12516H13.459C13.459 6.17516 13.1588 5.33732 12.5585 4.61162C11.9581 3.88593 11.2027 3.43072 10.2923 3.246V7.12516ZM5.54232 7.12516H8.70898V3.246C7.79857 3.43072 7.04319 3.88593 6.44284 4.61162C5.84249 5.33732 5.54232 6.17516 5.54232 7.12516ZM9.50065 15.8335C10.5958 15.8335 11.5293 15.4476 12.3012 14.6757C13.073 13.9038 13.459 12.9703 13.459 11.8752V8.7085H5.54232V11.8752C5.54232 12.9703 5.92826 13.9038 6.70013 14.6757C7.47201 15.4476 8.40551 15.8335 9.50065 15.8335Z" fill="currentColor"/>
</svg>

