<svg width="20" height="20" viewBox="0 0 20 20" fill="currentColor" xmlns="http://www.w3.org/2000/svg">
<path d="M9.16536 15.8334H10.832V12.3542L12.1654 13.6876L13.332 12.5001L9.9987 9.16675L6.66536 12.5001L7.85286 13.6667L9.16536 12.3542V15.8334ZM4.9987 18.3334C4.54036 18.3334 4.148 18.1702 3.82161 17.8438C3.49523 17.5174 3.33203 17.1251 3.33203 16.6667V3.33341C3.33203 2.87508 3.49523 2.48272 3.82161 2.15633C4.148 1.82994 4.54036 1.66675 4.9987 1.66675H11.6654L16.6654 6.66675V16.6667C16.6654 17.1251 16.5022 17.5174 16.1758 17.8438C15.8494 18.1702 15.457 18.3334 14.9987 18.3334H4.9987ZM10.832 7.50008V3.33341H4.9987V16.6667H14.9987V7.50008H10.832Z" fill="currentColor"/>
</svg>

