<svg width="20" height="20" viewBox="0 0 20 20" fill="none" xmlns="http://www.w3.org/2000/svg">
<path d="M0.832031 17.5V15.8333H19.1654V17.5H0.832031ZM16.8112 15H3.33203C2.8737 15 2.48134 14.8368 2.15495 14.5104C1.82856 14.184 1.66536 13.7917 1.66536 13.3333V4.16667C1.66536 3.70833 1.82856 3.31597 2.15495 2.98958C2.48134 2.66319 2.8737 2.5 3.33203 2.5H16.8112L15.1445 4.16667H3.33203V13.3333H15.1445L16.8112 15ZM15.2695 11.125L14.0612 9.91667C14.2279 9.76389 14.3563 9.58681 14.4466 9.38542C14.5369 9.18403 14.582 8.97222 14.582 8.75C14.582 8.52778 14.5369 8.31597 14.4466 8.11458C14.3563 7.91319 14.2279 7.73611 14.0612 7.58333L15.2695 6.375C15.589 6.69444 15.832 7.05903 15.9987 7.46875C16.1654 7.87847 16.2487 8.30556 16.2487 8.75C16.2487 9.19444 16.1654 9.62153 15.9987 10.0312C15.832 10.441 15.589 10.8056 15.2695 11.125ZM17.3112 13.1667L16.1445 12C16.589 11.5556 16.9258 11.0556 17.1549 10.5C17.3841 9.94444 17.4987 9.36111 17.4987 8.75C17.4987 8.13889 17.3841 7.55556 17.1549 7C16.9258 6.44444 16.589 5.94444 16.1445 5.5L17.3112 4.33333C17.9084 4.91667 18.3668 5.59028 18.6862 6.35417C19.0056 7.11806 19.1654 7.91667 19.1654 8.75C19.1654 9.58333 19.0056 10.3819 18.6862 11.1458C18.3668 11.9097 17.9084 12.5833 17.3112 13.1667Z" fill="#8F8E95"/>
<path d="M1.07682 2.25578L17.7435 18.9224L18.9219 17.7441L2.25521 1.07739L1.07682 2.25578Z" fill="#8F8E95"/>
</svg>