<svg width="20" height="20" viewBox="0 0 20 20" fill="currentColor" xmlns="http://www.w3.org/2000/svg">
<path d="M16.5013 18.9165L11.8763 14.2915C10.6402 15.2915 9.29644 16.0762 7.84505 16.6457C6.39366 17.2151 4.90408 17.4998 3.3763 17.4998C3.04297 17.4998 2.8138 17.4165 2.6888 17.2498C2.5638 17.0832 2.5013 16.8748 2.5013 16.6248V13.2498C2.5013 13.0554 2.5638 12.8853 2.6888 12.7394C2.8138 12.5936 2.97352 12.4998 3.16797 12.4582L6.04297 11.8748C6.19575 11.8471 6.38672 11.8679 6.61589 11.9373C6.84505 12.0068 7.01519 12.0971 7.1263 12.2082L9.08464 14.1665C9.33464 14.0137 9.60547 13.8401 9.89714 13.6457C10.1888 13.4512 10.4457 13.2637 10.668 13.0832L1.16797 3.58317L2.33464 2.4165L17.668 17.7498L16.5013 18.9165ZM7.5013 14.9165L6.1263 13.5415L4.16797 13.9582V15.7915C4.73741 15.7498 5.29991 15.6526 5.85547 15.4998C6.41102 15.3471 6.95964 15.1526 7.5013 14.9165ZM14.2096 11.9165L13.043 10.7498C13.2513 10.5137 13.4631 10.2429 13.6784 9.93734C13.8937 9.63178 14.0638 9.34706 14.1888 9.08317L12.168 7.0415C12.0569 6.93039 11.9805 6.77414 11.9388 6.57275C11.8971 6.37137 11.8902 6.20817 11.918 6.08317L12.4596 3.1665C12.5013 2.97206 12.5951 2.81234 12.7409 2.68734C12.8867 2.56234 13.0569 2.49984 13.2513 2.49984H16.6263C16.8763 2.49984 17.0846 2.58317 17.2513 2.74984C17.418 2.9165 17.5013 3.12484 17.5013 3.37484C17.5013 4.90262 17.2096 6.3922 16.6263 7.84359C16.043 9.29498 15.2374 10.6526 14.2096 11.9165ZM14.9596 7.49984C15.1957 6.95817 15.3763 6.40956 15.5013 5.854C15.6263 5.29845 15.7235 4.73595 15.793 4.1665H13.9596L13.5846 6.12484L14.9596 7.49984Z" fill="currentColor"/>
</svg>

