<svg width="20" height="20" viewBox="0 0 20 20" fill="currentColor" xmlns="http://www.w3.org/2000/svg">
<path d="M0.832031 17.5V15.8333H19.1654V17.5H0.832031ZM3.33203 15C2.8737 15 2.48134 14.8368 2.15495 14.5104C1.82856 14.184 1.66536 13.7917 1.66536 13.3333V4.16667C1.66536 3.70833 1.82856 3.31597 2.15495 2.98958C2.48134 2.66319 2.8737 2.5 3.33203 2.5H16.6654C17.1237 2.5 17.5161 2.66319 17.8424 2.98958C18.1688 3.31597 18.332 3.70833 18.332 4.16667V13.3333C18.332 13.7917 18.1688 14.184 17.8424 14.5104C17.5161 14.8368 17.1237 15 16.6654 15H3.33203ZM3.33203 13.3333H16.6654V4.16667H3.33203V13.3333ZM7.83203 12.0833L9.9987 9.91667L12.1654 12.0833L13.332 10.9167L11.1654 8.75L13.332 6.58333L12.1654 5.41667L9.9987 7.58333L7.83203 5.41667L6.66536 6.58333L8.83203 8.75L6.66536 10.9167L7.83203 12.0833Z" fill="currentColor"/>
</svg>

