<svg width="20" height="20" viewBox="0 0 20 20" fill="currentColor" xmlns="http://www.w3.org/2000/svg">
<path d="M4.9987 11.6666C4.54036 11.6666 4.148 11.5034 3.82161 11.177C3.49523 10.8506 3.33203 10.4583 3.33203 9.99992C3.33203 9.54159 3.49523 9.14922 3.82161 8.82284C4.148 8.49645 4.54036 8.33325 4.9987 8.33325C5.45703 8.33325 5.84939 8.49645 6.17578 8.82284C6.50217 9.14922 6.66536 9.54159 6.66536 9.99992C6.66536 10.4583 6.50217 10.8506 6.17578 11.177C5.84939 11.5034 5.45703 11.6666 4.9987 11.6666ZM9.9987 11.6666C9.54036 11.6666 9.148 11.5034 8.82161 11.177C8.49523 10.8506 8.33203 10.4583 8.33203 9.99992C8.33203 9.54159 8.49523 9.14922 8.82161 8.82284C9.148 8.49645 9.54036 8.33325 9.9987 8.33325C10.457 8.33325 10.8494 8.49645 11.1758 8.82284C11.5022 9.14922 11.6654 9.54159 11.6654 9.99992C11.6654 10.4583 11.5022 10.8506 11.1758 11.177C10.8494 11.5034 10.457 11.6666 9.9987 11.6666ZM14.9987 11.6666C14.5404 11.6666 14.148 11.5034 13.8216 11.177C13.4952 10.8506 13.332 10.4583 13.332 9.99992C13.332 9.54159 13.4952 9.14922 13.8216 8.82284C14.148 8.49645 14.5404 8.33325 14.9987 8.33325C15.457 8.33325 15.8494 8.49645 16.1758 8.82284C16.5022 9.14922 16.6654 9.54159 16.6654 9.99992C16.6654 10.4583 16.5022 10.8506 16.1758 11.177C15.8494 11.5034 15.457 11.6666 14.9987 11.6666Z" fill="currentColor"/>
</svg>

