<svg width="19" height="19" viewBox="0 0 19 19" fill="currentColor" xmlns="http://www.w3.org/2000/svg">
<path d="M2.37435 15.8332C1.93893 15.8332 1.56619 15.6781 1.25612 15.3681C0.94605 15.058 0.791016 14.6853 0.791016 14.2498V4.74984C0.791016 4.31442 0.94605 3.94168 1.25612 3.63161C1.56619 3.32154 1.93893 3.1665 2.37435 3.1665H16.6244C17.0598 3.1665 17.4325 3.32154 17.7426 3.63161C18.0527 3.94168 18.2077 4.31442 18.2077 4.74984V14.2498C18.2077 14.6853 18.0527 15.058 17.7426 15.3681C17.4325 15.6781 17.0598 15.8332 16.6244 15.8332H2.37435ZM2.37435 14.2498H16.6244V4.74984H2.37435V14.2498ZM6.33268 13.4582H12.666V11.8748H6.33268V13.4582ZM3.95768 10.6873H5.54102V9.104H3.95768V10.6873ZM7.12435 10.6873H8.70768V9.104H7.12435V10.6873ZM10.291 10.6873H11.8743V9.104H10.291V10.6873ZM13.4577 10.6873H15.041V9.104H13.4577V10.6873ZM3.95768 7.9165H5.54102V6.33317H3.95768V7.9165ZM7.12435 7.9165H8.70768V6.33317H7.12435V7.9165ZM10.291 7.9165H11.8743V6.33317H10.291V7.9165ZM13.4577 7.9165H15.041V6.33317H13.4577V7.9165Z" fill="currentColor"/>
</svg>

