<svg width="14" height="18" viewBox="0 0 14 18" fill="none" xmlns="http://www.w3.org/2000/svg">
<path d="M5.83333 15H7.5V12.5H10V10.8333H7.5V8.33333H5.83333V10.8333H3.33333V12.5H5.83333V15ZM1.66667 17.5C1.20833 17.5 0.815972 17.3368 0.489583 17.0104C0.163194 16.684 0 16.2917 0 15.8333V7.5C0 7.04167 0.163194 6.64931 0.489583 6.32292C0.815972 5.99653 1.20833 5.83333 1.66667 5.83333H2.5V4.16667C2.5 3.01389 2.90625 2.03125 3.71875 1.21875C4.53125 0.40625 5.51389 0 6.66667 0C7.81944 0 8.80208 0.40625 9.61458 1.21875C10.4271 2.03125 10.8333 3.01389 10.8333 4.16667V5.83333H11.6667C12.125 5.83333 12.5174 5.99653 12.8438 6.32292C13.1701 6.64931 13.3333 7.04167 13.3333 7.5V15.8333C13.3333 16.2917 13.1701 16.684 12.8438 17.0104C12.5174 17.3368 12.125 17.5 11.6667 17.5H1.66667ZM1.66667 15.8333H11.6667V7.5H1.66667V15.8333ZM4.16667 5.83333H9.16667V4.16667C9.16667 3.47222 8.92361 2.88194 8.4375 2.39583C7.95139 1.90972 7.36111 1.66667 6.66667 1.66667C5.97222 1.66667 5.38194 1.90972 4.89583 2.39583C4.40972 2.88194 4.16667 3.47222 4.16667 4.16667V5.83333Z" fill="currentColor"/>
</svg>

