<svg width="17" height="15" viewBox="0 0 17 15" fill="none" xmlns="http://www.w3.org/2000/svg">
<path d="M5 15V13.3333H6.66667V11.6667H1.66667C1.20833 11.6667 0.815972 11.5035 0.489583 11.1771C0.163194 10.8507 0 10.4583 0 10V1.66667C0 1.20833 0.163194 0.815972 0.489583 0.489583C0.815972 0.163194 1.20833 0 1.66667 0H15C15.4583 0 15.8507 0.163194 16.1771 0.489583C16.5035 0.815972 16.6667 1.20833 16.6667 1.66667V10C16.6667 10.4583 16.5035 10.8507 16.1771 11.1771C15.8507 11.5035 15.4583 11.6667 15 11.6667H10V13.3333H11.6667V15H5ZM1.66667 10H15V1.66667H1.66667V10Z" fill="currentColor"/>
</svg>

