<svg width="360" height="740" viewBox="0 0 360 740" fill="none" xmlns="http://www.w3.org/2000/svg">
<rect width="360" height="740" fill="white"/>
<rect width="360" height="740" fill="url(#paint0_radial_101_7797)"/>
<rect width="360" height="740" fill="url(#paint1_radial_101_7797)" fill-opacity="0.3"/>
<rect width="360" height="740" fill="url(#paint2_radial_101_7797)" fill-opacity="0.3"/>
<path d="M114.398 378.748C114.398 380.85 112.693 382.555 110.591 382.555C108.489 382.555 106.784 380.85 106.784 378.748C106.784 376.645 108.489 374.941 110.591 374.941C112.693 374.941 114.398 376.645 114.398 378.748Z" fill="#FEFEFE"/>
<path d="M125.407 357.458L131.453 374.998C132.697 378.604 130.111 382.357 126.353 382.535L126.357 382.542H118.376L111.155 370.38H119.135L125.681 381.405L117.426 357.458H125.407Z" fill="#FEFEFE"/>
<path d="M144.725 369.88C144.725 368.635 144.939 367.505 145.367 366.488C145.795 365.458 146.39 364.582 147.153 363.859C147.915 363.137 148.812 362.582 149.842 362.194C150.885 361.792 152.009 361.592 153.213 361.592C154.431 361.592 155.555 361.792 156.585 362.194C157.628 362.582 158.525 363.137 159.274 363.859C160.036 364.582 160.625 365.458 161.04 366.488C161.468 367.505 161.682 368.635 161.682 369.88C161.682 371.137 161.468 372.281 161.04 373.311C160.625 374.328 160.036 375.198 159.274 375.92C158.525 376.656 157.628 377.218 156.585 377.606C155.555 378.007 154.431 378.208 153.213 378.208C152.009 378.208 150.885 378.007 149.842 377.606C148.812 377.218 147.915 376.656 147.153 375.92C146.39 375.198 145.795 374.328 145.367 373.311C144.939 372.281 144.725 371.137 144.725 369.88ZM147.895 369.88C147.895 370.776 148.036 371.585 148.317 372.308C148.598 373.017 148.979 373.626 149.461 374.134C149.942 374.629 150.504 375.01 151.146 375.278C151.802 375.545 152.491 375.679 153.213 375.679C153.949 375.679 154.638 375.545 155.28 375.278C155.922 375.01 156.484 374.629 156.966 374.134C157.448 373.626 157.822 373.017 158.09 372.308C158.371 371.585 158.511 370.776 158.511 369.88C158.511 368.997 158.371 368.207 158.09 367.512C157.822 366.803 157.448 366.201 156.966 365.706C156.484 365.197 155.922 364.809 155.28 364.542C154.638 364.274 153.949 364.14 153.213 364.14C152.477 364.14 151.782 364.274 151.126 364.542C150.484 364.809 149.922 365.197 149.441 365.706C148.959 366.201 148.578 366.803 148.297 367.512C148.029 368.207 147.895 368.997 147.895 369.88Z" fill="#FEFEFE"/>
<path d="M166.537 367.331C166.751 367.077 167.012 366.849 167.319 366.649C167.64 366.448 167.982 366.281 168.343 366.147C168.704 366 169.079 365.893 169.467 365.826C169.855 365.746 170.229 365.706 170.59 365.706C171.326 365.706 172.015 365.819 172.657 366.047C173.3 366.274 173.861 366.595 174.343 367.01C174.825 367.411 175.199 367.906 175.467 368.495C175.748 369.07 175.888 369.712 175.888 370.421V377.806H172.718V371.505C172.718 370.328 172.463 369.478 171.955 368.956C171.447 368.421 170.751 368.154 169.868 368.154C169.105 368.154 168.436 368.415 167.861 368.936C167.299 369.445 166.931 370.154 166.757 371.064V377.806H163.587V366.107H166.276L166.537 367.331Z" fill="#FEFEFE"/>
<path d="M181.312 373.953C181.593 374.596 182.021 375.091 182.597 375.438C183.172 375.786 183.888 375.96 184.744 375.96C185.547 375.96 186.276 375.826 186.931 375.559C187.6 375.291 188.202 374.836 188.737 374.194L190.764 375.739C190.069 376.582 189.232 377.238 188.256 377.706C187.279 378.174 186.216 378.408 185.065 378.408C184.075 378.408 183.152 378.255 182.296 377.947C181.439 377.653 180.69 377.224 180.048 376.663C179.419 376.114 178.918 375.445 178.543 374.656C178.182 373.853 178.001 372.957 178.001 371.967C178.001 371.003 178.175 370.127 178.523 369.338C178.871 368.535 179.346 367.853 179.948 367.291C180.55 366.716 181.259 366.274 182.075 365.966C182.904 365.645 183.801 365.485 184.764 365.485C185.7 365.485 186.557 365.639 187.333 365.946C188.122 366.254 188.804 366.682 189.38 367.231C189.955 367.766 190.41 368.415 190.744 369.177C191.092 369.926 191.286 370.749 191.326 371.646L181.312 373.953ZM184.904 367.933C183.714 367.933 182.771 368.267 182.075 368.936C181.393 369.592 181.018 370.488 180.951 371.626L188.175 369.9C187.828 369.204 187.373 368.702 186.811 368.395C186.249 368.087 185.613 367.933 184.904 367.933Z" fill="#FEFEFE"/>
<path d="M198.666 362.013H205.81C206.84 362.013 207.784 362.214 208.64 362.615C209.496 363.016 210.225 363.572 210.827 364.281C211.443 364.976 211.918 365.806 212.252 366.769C212.6 367.732 212.774 368.769 212.774 369.88C212.774 371.03 212.6 372.094 212.252 373.07C211.904 374.034 211.396 374.87 210.727 375.579C210.071 376.275 209.262 376.816 208.299 377.204C207.349 377.606 206.265 377.806 205.048 377.806H198.666V362.013ZM201.837 375.358H204.807C205.596 375.358 206.285 375.218 206.874 374.937C207.476 374.656 207.978 374.274 208.379 373.793C208.78 373.298 209.081 372.716 209.282 372.047C209.496 371.365 209.603 370.622 209.603 369.819C209.603 369.03 209.489 368.308 209.262 367.652C209.035 366.997 208.7 366.435 208.259 365.966C207.817 365.485 207.275 365.117 206.633 364.863C206.004 364.595 205.289 364.461 204.486 364.461H201.837V375.358Z" fill="#FEFEFE"/>
<path d="M217.587 373.953C217.868 374.596 218.296 375.091 218.872 375.438C219.447 375.786 220.163 375.96 221.019 375.96C221.821 375.96 222.551 375.826 223.206 375.559C223.875 375.291 224.477 374.836 225.012 374.194L227.039 375.739C226.343 376.582 225.507 377.238 224.531 377.706C223.554 378.174 222.49 378.408 221.34 378.408C220.35 378.408 219.427 378.255 218.57 377.947C217.714 377.653 216.965 377.224 216.323 376.663C215.694 376.114 215.192 375.445 214.818 374.656C214.457 373.853 214.276 372.957 214.276 371.967C214.276 371.003 214.45 370.127 214.798 369.338C215.146 368.535 215.621 367.853 216.223 367.291C216.825 366.716 217.534 366.274 218.35 365.966C219.179 365.645 220.076 365.485 221.039 365.485C221.975 365.485 222.832 365.639 223.608 365.946C224.397 366.254 225.079 366.682 225.654 367.231C226.23 367.766 226.685 368.415 227.019 369.177C227.367 369.926 227.561 370.749 227.601 371.646L217.587 373.953ZM221.179 367.933C219.989 367.933 219.045 368.267 218.35 368.936C217.667 369.592 217.293 370.488 217.226 371.626L224.45 369.9C224.103 369.204 223.648 368.702 223.086 368.395C222.524 368.087 221.888 367.933 221.179 367.933Z" fill="#FEFEFE"/>
<path d="M237.74 369.077C237.232 368.716 236.67 368.441 236.055 368.254C235.453 368.053 234.897 367.953 234.389 367.953C233.051 367.953 232.382 368.341 232.382 369.117C232.382 369.425 232.496 369.692 232.723 369.92C232.951 370.134 233.386 370.314 234.028 370.462C235.807 370.876 237.112 371.411 237.941 372.067C238.771 372.723 239.185 373.565 239.185 374.596C239.185 375.238 239.058 375.8 238.804 376.281C238.563 376.763 238.222 377.158 237.781 377.465C237.339 377.786 236.804 378.02 236.175 378.168C235.56 378.328 234.871 378.408 234.108 378.408C233.065 378.408 232.115 378.261 231.259 377.967C230.416 377.686 229.62 377.285 228.87 376.763L230.014 374.535C230.523 374.963 231.091 375.305 231.72 375.559C232.349 375.813 233.024 375.94 233.747 375.94C234.617 375.94 235.212 375.84 235.533 375.639C235.854 375.438 236.015 375.104 236.015 374.636C236.015 374.234 235.827 373.907 235.453 373.652C235.091 373.398 234.563 373.177 233.867 372.99C233.024 372.763 232.309 372.529 231.72 372.288C231.131 372.047 230.65 371.779 230.275 371.485C229.914 371.177 229.646 370.829 229.472 370.442C229.299 370.04 229.212 369.572 229.212 369.037C229.212 368.502 229.325 368.02 229.553 367.592C229.78 367.15 230.101 366.776 230.516 366.468C230.944 366.16 231.453 365.926 232.041 365.766C232.63 365.592 233.285 365.505 234.008 365.505C234.57 365.505 235.071 365.545 235.513 365.625C235.968 365.692 236.382 365.792 236.757 365.926C237.145 366.06 237.5 366.221 237.821 366.408C238.142 366.582 238.449 366.776 238.744 366.99L237.74 369.077Z" fill="#FEFEFE"/>
<path d="M249.433 377.806L244.677 372.85V377.806H241.506V362.013H244.677V370.442L249.232 366.107H253.065L247.286 371.565L253.266 377.806H249.433Z" fill="#FEFEFE"/>
<defs>
<radialGradient id="paint0_radial_101_7797" cx="0" cy="0" r="1" gradientTransform="matrix(180 560.226 -412.706 249.015 -2.47816e-06 179.774)" gradientUnits="userSpaceOnUse">
<stop stop-color="#5F71FF"/>
<stop offset="1" stop-color="#5F71FF" stop-opacity="0"/>
</radialGradient>
<radialGradient id="paint1_radial_101_7797" cx="0" cy="0" r="1" gradientTransform="matrix(-148.729 -437.938 275.251 -175.545 232.246 740)" gradientUnits="userSpaceOnUse">
<stop stop-color="#001CDE"/>
<stop offset="1" stop-color="#001CDE" stop-opacity="0"/>
</radialGradient>
<radialGradient id="paint2_radial_101_7797" cx="0" cy="0" r="1" gradientTransform="matrix(-308.638 -48.9518 36.2641 -429.372 360 199.11)" gradientUnits="userSpaceOnUse">
<stop stop-color="#009DFF"/>
<stop offset="1" stop-color="#009DFF" stop-opacity="0"/>
</radialGradient>
</defs>
</svg>