<svg width="24" height="24" viewBox="0 0 24 24" fill="currentColor" xmlns="http://www.w3.org/2000/svg">
<path d="M18 14V16H20C20.55 16 21.0208 15.8042 21.4125 15.4125C21.8042 15.0208 22 14.55 22 14V4C22 3.45 21.8042 2.97917 21.4125 2.5875C21.0208 2.19583 20.55 2 20 2H10C9.45 2 8.97917 2.19583 8.5875 2.5875C8.19583 2.97917 8 3.45 8 4V6H10V4H20V14H18ZM14 22C14.55 22 15.0208 21.8042 15.4125 21.4125C15.8042 21.0208 16 20.55 16 20V10C16 9.45 15.8042 8.97917 15.4125 8.5875C15.0208 8.19583 14.55 8 14 8H4C3.45 8 2.97917 8.19583 2.5875 8.5875C2.19583 8.97917 2 9.45 2 10V20C2 20.55 2.19583 21.0208 2.5875 21.4125C2.97917 21.8042 3.45 22 4 22H14ZM14 20H4V10H14V20Z" fill="currentColor"/>
</svg>

