<svg width="24" height="24" viewBox="0 0 24 24" fill="currentColor" xmlns="http://www.w3.org/2000/svg">
<path d="M17.7484 14.95L16.2984 13.5C16.5318 13.1167 16.7068 12.7167 16.8234 12.3C16.9401 11.8833 16.9984 11.45 16.9984 11H18.9984C18.9984 11.7333 18.8901 12.4292 18.6734 13.0875C18.4568 13.7458 18.1484 14.3667 17.7484 14.95ZM14.7984 11.95L12.9984 10.15V5C12.9984 4.71667 12.9026 4.47917 12.7109 4.2875C12.5193 4.09583 12.2818 4 11.9984 4C11.7151 4 11.4776 4.09583 11.2859 4.2875C11.0943 4.47917 10.9984 4.71667 10.9984 5V8.15L8.99844 6.15V5C8.99844 4.16667 9.2901 3.45833 9.87344 2.875C10.4568 2.29167 11.1651 2 11.9984 2C12.8318 2 13.5401 2.29167 14.1234 2.875C14.7068 3.45833 14.9984 4.16667 14.9984 5V11C14.9984 11.1833 14.9776 11.35 14.9359 11.5C14.8943 11.65 14.8484 11.8 14.7984 11.95ZM10.9984 21V17.925C9.2651 17.6917 7.83177 16.9167 6.69844 15.6C5.5651 14.2833 4.99844 12.75 4.99844 11H6.99844C6.99844 12.3833 7.4776 13.5625 8.43594 14.5375C9.39427 15.5125 10.5818 16 11.9984 16C12.5651 16 13.1026 15.9125 13.6109 15.7375C14.1193 15.5625 14.5818 15.3167 14.9984 15L16.4234 16.425C15.9401 16.8083 15.4109 17.1333 14.8359 17.4C14.2609 17.6667 13.6484 17.8417 12.9984 17.925V21H10.9984ZM19.7984 22.6L1.39844 4.2L2.79844 2.8L21.1984 21.2L19.7984 22.6Z" fill="currentColor"/>
</svg>

